# xmcd
#
# Track frame offsets:
#	150
#	14207
#	24964
#	38107
#	50705
#	62561
#	73805
#	83400
#	98949
#	109089
#	121132
#	136237
#	147986
#	162181
#	173942
#	187477
#	212604
#
# Disc length: 2849 seconds
#
# Revision: 0
# Processed by: cddbd v1.5.2PL0 Copyright (c) Steve Scherf et al.
# Submitted via: audiograbber 1.83.01
#
DISCID=f50b1f11
DTITLE=Various Artist - Chartbuster Karaoke -Country 500 Vol1 Disc6
DYEAR=1900
DGENRE=Karaoke
TTITLE0=Eddy Arnold - Make The World Go Away
TTITLE1=Loretta Lynn - You Ain't Woman Enough To Take My Man
TTITLE2=Ernest Tubb - Waltz Accross Texas
TTITLE3=Tammy Wynette - I Don't Wanna Play House
TTITLE4=Roger Miller - King Of The Road
TTITLE5=Warner Mack - The Bridge Washed Out
TTITLE6=Loretta Lynn - Dont Come Home A' Drinkin' (With Lovin On Your Mind)
TTITLE7=David Houston - Almost Pursuaded
TTITLE8=Tammy Wynette - Your Good Girl's Gonna Go Bad
TTITLE9=Jack Green - There Goes My Everything
TTITLE10=Jeannie C.Riley - Harper Valley  P.t.a.
TTITLE11=Statler Brothers - Flowers On The Wall
TTITLE12=Johnny Cash - Jackson
TTITLE13=Jim Ed Brown - Pop A Top
TTITLE14=Tammy Wynette - D.i.v.o.r.c.e.
TTITLE15=George Jones - We're Gonna Hold On
TTITLE16=Data Track - Data Track
EXTD=
EXTT0=
EXTT1=
EXTT2=
EXTT3=
EXTT4=
EXTT5=
EXTT6=
EXTT7=
EXTT8=
EXTT9=
EXTT10=
EXTT11=
EXTT12=
EXTT13=
EXTT14=
EXTT15=
EXTT16=
PLAYORDER=
